<svg width="25" height="25" viewBox="0 0 25 25" fill="none" xmlns="http://www.w3.org/2000/svg">
<path d="M23 12.8V15.2M7.69444 11.6V16.4M10.8611 11.6V16.4M14.0278 11.6V16.4M17.1944 11.6V16.4M19.8333 8H5.05556C4.7756 8 4.50712 8.12643 4.30917 8.35147C4.11121 8.57652 4 8.88174 4 9.2V18.8C4 19.1183 4.11121 19.4235 4.30917 19.6485C4.50712 19.8736 4.7756 20 5.05556 20H19.8333C20.1133 20 20.3818 19.8736 20.5797 19.6485C20.7777 19.4235 20.8889 19.1183 20.8889 18.8V9.2C20.8889 8.88174 20.7777 8.57652 20.5797 8.35147C20.3818 8.12643 20.1133 8 19.8333 8Z" stroke="#3D923A" stroke-width="1.5" stroke-linecap="round" stroke-linejoin="round"/>
</svg>
