<svg width="40" height="40" viewBox="0 0 40 40" fill="none" xmlns="http://www.w3.org/2000/svg">
<path fill-rule="evenodd" clip-rule="evenodd" d="M18.4817 0.0421065C18.4066 0.0729477 18.11 0.104842 17.8227 0.112977C17.5353 0.121112 17.3001 0.141828 17.3001 0.159092C17.3001 0.176298 17.2539 0.19444 17.1975 0.199356C16.7153 0.241375 15.9165 0.370299 15.8379 0.418756C15.8048 0.439238 15.6184 0.481608 15.4236 0.512918C15.2289 0.544227 14.853 0.63558 14.5883 0.715873C14.3236 0.796224 14.0016 0.892259 13.8727 0.929303C13.7438 0.966348 13.6133 1.01843 13.5827 1.045C13.552 1.07157 13.4804 1.09334 13.4233 1.09334C13.3663 1.09334 13.2249 1.14654 13.1091 1.2115C12.9932 1.27652 12.8738 1.3145 12.8437 1.29589C12.8137 1.27734 12.7304 1.30314 12.6587 1.3533C12.587 1.40345 12.4815 1.44447 12.4242 1.44447C12.367 1.44447 12.3201 1.46788 12.3201 1.49656C12.3201 1.52518 12.2032 1.58311 12.0602 1.62525C11.9173 1.66739 11.8161 1.72743 11.8355 1.75868C11.8556 1.79128 11.8299 1.79988 11.775 1.77887C11.7224 1.75868 11.6638 1.7674 11.6448 1.79818C11.6257 1.82897 11.5609 1.85413 11.5006 1.85413C11.4404 1.85413 11.3497 1.8955 11.299 1.94607C11.2484 1.99669 11.2069 2.02215 11.2069 2.00272C11.2069 1.98329 11.0817 2.03847 10.9286 2.12538C10.7756 2.21223 10.556 2.33003 10.4407 2.38709C10.3254 2.44415 10.1972 2.53164 10.1558 2.5815C10.1144 2.63136 10.0571 2.6577 10.0286 2.64008C9.99997 2.62247 9.97659 2.63593 9.97659 2.66999C9.97659 2.70405 9.92386 2.73196 9.85942 2.73196C9.79497 2.73196 9.74224 2.7583 9.74224 2.79049C9.74224 2.82267 9.70246 2.84901 9.65377 2.84901C9.60515 2.84901 9.52019 2.90168 9.465 2.96605C9.40981 3.03043 9.32439 3.08392 9.27518 3.08497C9.15841 3.08737 8.9714 3.22999 9.02056 3.27909C9.04153 3.30004 9.00251 3.31719 8.93384 3.31719C8.86518 3.31719 8.78076 3.36986 8.74625 3.43423C8.71174 3.4986 8.64489 3.55127 8.59773 3.55127C8.5505 3.55127 8.5119 3.57919 8.5119 3.61325C8.5119 3.64731 8.48764 3.66024 8.45805 3.64198C8.42841 3.62367 8.36437 3.64848 8.31574 3.69705C8.26711 3.74563 8.20454 3.78536 8.17677 3.78536C8.14894 3.78536 8.02843 3.87748 7.90891 3.99007C7.78945 4.10267 7.69166 4.17963 7.69166 4.16113C7.69166 4.14264 7.61052 4.20854 7.51139 4.30756C7.41226 4.40658 7.30592 4.48763 7.2751 4.48763C7.24429 4.48763 6.6597 5.0529 5.97604 5.74381C4.75688 6.97582 4.29357 7.47443 4.29357 7.55449C4.29357 7.57655 4.23422 7.65538 4.16174 7.72964C3.92552 7.97169 3.7405 8.20245 3.73054 8.26752C3.72521 8.30258 3.5843 8.52244 3.41744 8.75601C3.25053 8.98963 3.06129 9.28177 2.9969 9.40519C2.93251 9.52862 2.84199 9.66099 2.79577 9.69927C2.74954 9.7376 2.71169 9.80642 2.71169 9.85219C2.71169 9.89795 2.592 10.11 2.4457 10.3234C2.29941 10.5368 2.19366 10.7477 2.21071 10.7921C2.2277 10.8364 2.21557 10.8565 2.18376 10.8369C2.15189 10.8172 2.12581 10.8554 2.12581 10.9216C2.12581 10.9879 2.09945 11.0421 2.06723 11.0421C2.035 11.0421 2.00864 11.0926 2.00864 11.1543C2.00864 11.216 1.9811 11.2756 1.94747 11.2868C1.91378 11.298 1.88197 11.3642 1.8767 11.434C1.87143 11.5037 1.84026 11.5559 1.80745 11.5501C1.77464 11.5443 1.73925 11.6054 1.72888 11.6859C1.71845 11.7663 1.6939 11.8717 1.67422 11.92C1.65459 11.9682 1.6427 12.0275 1.6478 12.0516C1.65295 12.0758 1.62917 12.0955 1.59507 12.0955C1.56097 12.0955 1.54931 12.1219 1.56923 12.154C1.58915 12.1862 1.57825 12.2126 1.54503 12.2126C1.51181 12.2126 1.44139 12.3611 1.38854 12.5426C1.3357 12.7242 1.2276 13.0017 1.14833 13.1595C1.06901 13.3171 0.996357 13.5044 0.986866 13.5755C0.970461 13.698 0.947788 13.7738 0.856039 14.0121C0.834362 14.0685 0.7838 14.2462 0.743668 14.4071C0.643189 14.81 0.534274 15.2092 0.496192 15.3142C0.478675 15.3625 0.458696 15.4415 0.451724 15.4898C0.444811 15.5381 0.409072 15.7062 0.372337 15.8634C0.335661 16.0205 0.317558 16.1611 0.332205 16.1757C0.346852 16.1903 0.320194 16.3322 0.272972 16.4911C0.225751 16.6499 0.201964 16.8039 0.220126 16.8332C0.238288 16.8626 0.215205 16.9871 0.168862 17.1099C0.0306529 17.4762 -0.00438268 18.0592 0.000421528 19.9082C0.00569444 21.9044 0.0614702 22.5645 0.334138 23.8585C0.384992 24.0999 0.426648 24.3681 0.426707 24.4545C0.426707 24.541 0.457231 24.6858 0.494493 24.7764C0.531755 24.867 0.566088 24.9675 0.570833 24.9997C0.58964 25.127 0.673538 25.4197 0.746948 25.6141C0.789483 25.7268 0.85809 25.9375 0.899336 26.0823C0.94064 26.2272 0.99624 26.3707 1.02284 26.4013C1.04944 26.4319 1.07123 26.5122 1.07123 26.5798C1.07123 26.6474 1.09303 26.7277 1.11963 26.7583C1.14622 26.7888 1.202 26.9324 1.24354 27.0772C1.28502 27.222 1.38626 27.4984 1.46852 27.6915C1.55077 27.8845 1.61803 28.0743 1.61803 28.1132C1.61803 28.1522 1.65319 28.1976 1.69619 28.2141C1.73913 28.2305 1.77429 28.2975 1.77429 28.3629C1.77429 28.4282 1.80065 28.4817 1.83288 28.4817C1.8651 28.4817 1.89146 28.516 1.89146 28.5579C1.89146 28.6655 2.02926 28.9489 2.08187 28.9494C2.10607 28.9497 2.12581 28.9886 2.12581 29.0359C2.12581 29.0832 2.17808 29.2149 2.24199 29.3286C2.30591 29.4421 2.34411 29.5351 2.32689 29.5351C2.30966 29.5351 2.36274 29.623 2.44477 29.7305C2.52685 29.8379 2.57712 29.9426 2.55655 29.9632C2.53599 29.9838 2.56235 30.0171 2.61508 30.0373C2.66787 30.0576 2.69634 30.0979 2.67836 30.1269C2.66037 30.1559 2.68673 30.1954 2.73694 30.2147C2.78715 30.234 2.81569 30.2698 2.80045 30.2945C2.78522 30.3192 2.82436 30.3988 2.88746 30.4715C2.95056 30.5442 2.98799 30.6266 2.97065 30.6546C2.95331 30.6826 2.9621 30.7056 2.99016 30.7056C3.01823 30.7056 3.10242 30.7883 3.17729 30.8895C3.25217 30.9906 3.28351 31.055 3.24689 31.0324C3.12064 30.9544 3.18098 31.0563 3.37081 31.2414C3.4755 31.3435 3.52167 31.4084 3.47334 31.3855C3.425 31.3626 3.4448 31.3878 3.51728 31.4416C3.58981 31.4952 3.6491 31.5714 3.6491 31.6107C3.6491 31.6501 3.70183 31.73 3.76628 31.7882C3.83072 31.8465 3.88345 31.9243 3.88345 31.9611C3.88345 31.9979 4.00807 32.1686 4.16034 32.3405C4.31261 32.5122 4.46634 32.7085 4.50202 32.7765C4.53764 32.8445 4.59957 32.8929 4.63959 32.8841C4.67966 32.8752 4.69747 32.8921 4.67925 32.9216C4.66103 32.951 4.71083 33.0175 4.78998 33.0694C4.95081 33.1746 5.12739 33.4433 4.98783 33.3705C4.88689 33.3177 5.21515 33.6271 5.40762 33.7661C5.48771 33.8239 5.51366 33.8526 5.46532 33.8298C5.36016 33.7803 6.13891 34.5519 6.34596 34.7024C6.42552 34.7602 6.45107 34.7889 6.40273 34.7661C6.3544 34.7434 6.37801 34.794 6.45517 34.8787C6.53239 34.9634 6.61628 35.0198 6.64171 35.0041C6.66708 34.9884 6.86716 35.1539 7.08628 35.3717C7.30539 35.5895 7.41917 35.6875 7.33914 35.5895C7.2021 35.4215 7.20474 35.4224 7.38484 35.6041C7.49 35.7102 7.59189 35.797 7.61117 35.797C7.65124 35.797 7.97248 36.0489 8.20706 36.2643C8.29418 36.3442 8.38523 36.4034 8.40937 36.3959C8.4335 36.3884 8.45331 36.4068 8.45331 36.4368C8.45331 36.4669 8.51225 36.51 8.58425 36.5329C8.65626 36.5558 8.85358 36.6765 9.02278 36.8014C9.19193 36.9262 9.34759 37.0256 9.36863 37.0222C9.38966 37.0188 9.42305 37.0393 9.44274 37.0677C9.52207 37.1821 9.83522 37.3586 9.9115 37.3319C9.95626 37.3163 9.97683 37.3294 9.9572 37.3611C9.92392 37.4149 10.6052 37.7868 10.737 37.7868C10.7699 37.7868 10.7968 37.8147 10.7968 37.8487C10.7968 37.8828 10.8232 37.8945 10.8554 37.8746C10.8876 37.8547 10.914 37.8678 10.914 37.9038C10.914 37.9398 10.9388 37.9539 10.9691 37.9352C10.9994 37.9165 11.0824 37.9611 11.1534 38.0342C11.2246 38.1074 11.2644 38.1346 11.2418 38.0947C11.2144 38.0461 11.2307 38.0337 11.2914 38.0569C11.3413 38.076 11.3684 38.1136 11.3518 38.1405C11.3352 38.1673 11.3683 38.1864 11.4254 38.1828C11.4825 38.1793 11.6462 38.2335 11.7892 38.3034C11.9322 38.3733 12.0853 38.4305 12.1295 38.4305C12.1737 38.4305 12.1936 38.4569 12.1736 38.489C12.1537 38.5212 12.179 38.5476 12.2297 38.5476C12.3745 38.5476 12.7888 38.6882 12.7888 38.7373C12.7888 38.7617 12.8531 38.7817 12.9318 38.7817C13.0105 38.7817 13.0893 38.805 13.1069 38.8336C13.1246 38.8621 13.2323 38.9029 13.3464 38.9243C13.4762 38.9486 13.5388 38.9873 13.5137 39.0277C13.4895 39.0668 13.5006 39.0758 13.5417 39.0504C13.6143 39.0056 13.8843 39.0785 14.3121 39.2583C14.4571 39.3192 14.6554 39.3776 14.7527 39.388C14.85 39.3984 14.9895 39.4389 15.0626 39.4779C15.1357 39.517 15.2406 39.5445 15.2957 39.539C15.3509 39.5335 15.4092 39.534 15.4253 39.5402C15.4868 39.5637 15.6959 39.6084 15.864 39.6339C15.9603 39.6485 16.0921 39.6775 16.1569 39.6983C16.2218 39.7192 16.3275 39.7431 16.392 39.7513C16.4564 39.7596 16.7402 39.7957 17.0225 39.8317C17.3049 39.8676 17.5992 39.921 17.6763 39.9504C17.8571 40.019 22.3187 40.0153 22.5001 39.9464C22.5756 39.9177 22.7612 39.8906 22.9127 39.8861C23.0642 39.8815 23.279 39.841 23.3901 39.7961C23.5012 39.7511 23.6279 39.7281 23.6717 39.7449C23.7155 39.7616 23.8449 39.7363 23.9593 39.6886C24.0737 39.6408 24.1867 39.6137 24.2105 39.6284C24.2343 39.6431 24.3567 39.6251 24.4826 39.5885C24.6084 39.5519 24.7378 39.5185 24.77 39.5144C24.8023 39.5102 24.9029 39.4753 24.9935 39.4368C25.0842 39.3984 25.223 39.3669 25.302 39.3669C25.3808 39.3669 25.4912 39.344 25.5471 39.3162C25.6791 39.2505 25.9724 39.1496 26.4105 39.0192C27.2151 38.7798 28.9002 38.0271 29.8672 37.4749C30.1572 37.3093 30.4077 37.1725 30.4238 37.1707C30.4923 37.1632 31.9332 36.1827 32.0935 36.0345C32.1902 35.9451 32.4275 35.7589 32.6208 35.6206C33.018 35.3366 35.4037 32.9963 35.4037 32.8907C35.4037 32.853 35.4262 32.8134 35.4538 32.8026C35.4812 32.7919 35.7294 32.4803 36.0051 32.1101C36.2809 31.74 36.5484 31.391 36.5996 31.3347C36.6508 31.2784 36.6951 31.2126 36.698 31.1884C36.7083 31.1039 36.8941 30.8226 36.9397 30.8226C36.9649 30.8226 36.9856 30.7971 36.9856 30.7659C36.9856 30.7347 37.1224 30.4779 37.2896 30.1953C37.8175 29.3028 38.4239 28.018 38.7888 27.0187C39.1441 26.046 39.6233 24.4075 39.6225 24.1686C39.6222 24.0977 39.6624 23.887 39.7118 23.7004C39.761 23.5137 39.8146 23.2425 39.8307 23.0977C39.8468 22.9529 39.8903 22.6895 39.9275 22.5125C40.0238 22.0527 40.0243 18.1012 39.9281 17.5966C39.8883 17.3874 39.8136 16.966 39.7622 16.6603C39.7109 16.3545 39.6471 15.9858 39.6205 15.8409C39.5628 15.5267 39.2042 14.1995 39.0433 13.7049C38.8672 13.1635 38.1906 11.4929 38.0314 11.2062C37.9902 11.1321 37.9548 11.0582 37.9528 11.0421C37.9491 11.0115 37.7468 10.6561 37.4156 10.0981C37.308 9.91685 37.22 9.75358 37.22 9.73526C37.22 9.71694 37.1409 9.58491 37.0442 9.44183C36.9475 9.29874 36.8684 9.16461 36.8684 9.14372C36.8684 9.12288 36.8025 9.03475 36.722 8.94802C36.6414 8.86123 36.5755 8.76917 36.5755 8.74342C36.5755 8.71767 36.3712 8.43226 36.1214 8.1091C35.8717 7.78594 35.6403 7.47759 35.6071 7.42375C35.574 7.36997 35.4158 7.18597 35.2556 7.01485C35.0954 6.84373 34.9643 6.68502 34.9643 6.66214C34.9643 6.61509 33.3729 5.01433 33.3262 5.01433C33.2898 5.01433 33.1544 4.90121 32.7494 4.5324C32.582 4.38001 32.4134 4.25495 32.3747 4.25442C32.3361 4.25395 32.2833 4.22001 32.2576 4.17898C32.2318 4.13796 32.1448 4.0617 32.0642 4.00956C31.9837 3.95736 31.8595 3.85922 31.7884 3.79151C31.7172 3.72374 31.6357 3.66832 31.6071 3.66832C31.5785 3.66832 31.5073 3.61565 31.4491 3.55127C31.3908 3.4869 31.322 3.43423 31.2964 3.43423C31.2337 3.43423 30.6925 3.07075 30.6678 3.01199C30.6569 2.9863 30.627 2.97834 30.6012 2.99432C30.5753 3.01024 30.5217 2.98408 30.4818 2.93615C30.442 2.88822 30.3845 2.84901 30.3539 2.84901C30.3234 2.84901 30.1834 2.77 30.0429 2.67344C29.9025 2.57688 29.7599 2.49787 29.7262 2.49787C29.6132 2.49787 29.3105 2.28345 29.3548 2.2347C29.3788 2.20819 29.3654 2.2055 29.325 2.22873C29.2548 2.26911 28.7752 2.04807 28.7345 1.95654C28.7237 1.93237 28.6644 1.91265 28.6027 1.91265C28.5409 1.91265 28.4904 1.88632 28.4904 1.85413C28.4904 1.82194 28.4706 1.80175 28.4464 1.8093C28.3924 1.82616 27.7208 1.56222 27.6438 1.49387C27.6131 1.46671 27.5525 1.44447 27.5091 1.44447C27.4657 1.44447 27.321 1.3918 27.1876 1.32743C27.0542 1.26306 26.9089 1.21039 26.8647 1.21039C26.8206 1.21039 26.7978 1.18867 26.8142 1.16216C26.8389 1.12225 26.4958 1.00685 26.1929 0.953239C26.0776 0.932815 25.8379 0.857672 25.7074 0.801023C25.643 0.773049 25.4189 0.707504 25.2094 0.655361C25 0.603217 24.7891 0.549553 24.7407 0.536034C24.2786 0.406934 23.9268 0.343496 23.071 0.23482C22.7564 0.19485 22.6766 0.179458 22.573 0.138551C22.2986 0.030285 18.7161 -0.0541625 18.4817 0.0421065ZM21.6875 3.22601C21.9255 3.23976 22.1891 3.27803 22.2734 3.31104C22.3576 3.34399 22.4924 3.36974 22.573 3.36816C22.7605 3.36459 23.6463 3.52078 23.9425 3.60968C24.0673 3.64719 24.2123 3.6881 24.2647 3.70068C24.3171 3.71321 24.4654 3.75271 24.5943 3.78846C24.7232 3.82428 24.9014 3.86753 24.9904 3.88473C25.0794 3.90188 25.1667 3.93922 25.1843 3.96766C25.2019 3.99616 25.2939 4.01945 25.3887 4.01945C25.4835 4.01945 25.561 4.04315 25.561 4.07212C25.561 4.10109 25.6928 4.15639 25.8539 4.19502C26.015 4.23364 26.1469 4.28895 26.1469 4.31791C26.1469 4.34688 26.2112 4.37059 26.2899 4.37059C26.3685 4.37059 26.4471 4.39353 26.4644 4.42156C26.4817 4.44959 26.5724 4.48781 26.6659 4.50647C26.7593 4.52514 26.8719 4.57483 26.916 4.61685C26.9602 4.65892 27.1807 4.76795 27.406 4.85913C27.6313 4.95037 27.9187 5.10071 28.0446 5.19323C28.1706 5.28576 28.2961 5.34767 28.3235 5.33076C28.3508 5.31385 28.3732 5.32795 28.3732 5.36201C28.3732 5.39607 28.4024 5.42399 28.438 5.42399C28.4736 5.42399 28.6111 5.5096 28.7433 5.61418C28.8757 5.71876 28.9636 5.77155 28.9389 5.7314C28.9141 5.69131 29.0667 5.76856 29.278 5.90311C29.4892 6.03765 29.6621 6.17079 29.6621 6.19899C29.6621 6.22714 29.6857 6.23563 29.7146 6.21784C29.7434 6.19999 29.7821 6.2248 29.8006 6.27291C29.8191 6.32101 29.8718 6.36034 29.9177 6.36034C29.9636 6.36034 30.0169 6.40154 30.0363 6.45181C30.0556 6.50214 30.0961 6.52812 30.1262 6.50951C30.1563 6.4909 30.198 6.52912 30.2187 6.59443C30.2394 6.65974 30.2792 6.69913 30.3071 6.68192C30.335 6.66471 30.4649 6.75238 30.5958 6.8768C30.7268 7.00122 30.8339 7.09286 30.8339 7.08051C30.8339 7.04095 31.0077 7.19493 31.6393 7.79414C32.3802 8.49693 32.7966 8.93023 32.7966 8.99841C32.7966 9.02603 32.8814 9.12195 32.9851 9.21143C33.0889 9.30097 33.1811 9.41186 33.1902 9.45786C33.2111 9.56396 33.3322 9.72642 33.5684 9.96548C33.6707 10.069 33.7388 10.1692 33.7198 10.1882C33.7008 10.2072 33.7203 10.2228 33.7633 10.2228C33.8062 10.2228 33.8243 10.2399 33.8034 10.2607C33.7825 10.2816 33.8113 10.3409 33.8673 10.3924C33.9233 10.444 34.0064 10.5586 34.0519 10.6471C34.0973 10.7356 34.1565 10.808 34.1833 10.808C34.2101 10.808 34.232 10.8462 34.232 10.8928C34.232 10.9394 34.2962 11.0469 34.3748 11.1315C34.4534 11.2162 34.5058 11.3163 34.4914 11.354C34.4769 11.3917 34.5284 11.4907 34.6058 11.574C34.7845 11.7664 34.9636 12.101 34.943 12.2038C34.9343 12.2473 34.9553 12.2655 34.9897 12.2442C35.0242 12.2229 35.0522 12.2484 35.0522 12.301C35.0522 12.3535 35.092 12.4362 35.1406 12.4848C35.1892 12.5334 35.2141 12.5973 35.1958 12.627C35.1775 12.6565 35.1904 12.6807 35.2245 12.6807C35.2586 12.6807 35.2866 12.7067 35.2866 12.7383C35.2866 12.77 35.3657 12.959 35.4623 13.1583C35.559 13.3577 35.6381 13.5688 35.6381 13.6275C35.6381 13.6862 35.6688 13.7341 35.7065 13.7341C35.744 13.7341 35.7571 13.7518 35.7355 13.7733C35.714 13.7949 35.7349 13.8716 35.7823 13.9436C35.8296 14.0157 35.8798 14.1364 35.8939 14.2117C35.9081 14.287 35.9629 14.4671 36.0158 14.612C36.0686 14.7568 36.1644 15.0728 36.2286 15.3142C36.2928 15.5556 36.3621 15.7927 36.3826 15.8409C36.403 15.8892 36.4283 16.0025 36.4386 16.0926C36.4489 16.1828 36.4852 16.3084 36.5191 16.3718C36.5531 16.4352 36.5663 16.5107 36.5485 16.5395C36.5307 16.5683 36.5446 16.6665 36.5795 16.7577C36.6477 16.9361 36.6674 17.0473 36.7452 17.6931C36.7729 17.9232 36.8138 18.1409 36.836 18.1769C36.8721 18.2351 36.885 21.5926 36.85 21.8102C36.8422 21.8585 36.8219 21.9243 36.8049 21.9565C36.7879 21.9887 36.7671 22.1072 36.7587 22.2199C36.7503 22.3325 36.7177 22.5241 36.6862 22.6455C36.6546 22.7669 36.6411 22.8861 36.6561 22.9104C36.6711 22.9347 36.6434 23.1118 36.5945 23.304C36.5456 23.4963 36.4784 23.7853 36.4453 23.9463C36.4122 24.1072 36.371 24.2784 36.3538 24.3267C36.3366 24.3749 36.3121 24.4868 36.2993 24.5754C36.2865 24.6639 36.1984 24.951 36.1035 25.2135C36.0087 25.476 35.931 25.7361 35.931 25.7915C35.931 25.847 35.8958 25.9217 35.8526 25.9574C35.8095 25.9931 35.7419 26.1301 35.7024 26.2618C35.6629 26.3934 35.5657 26.6173 35.4865 26.7591C35.4071 26.901 35.3432 27.0307 35.3444 27.0474C35.3456 27.0641 35.3067 27.173 35.2579 27.2895C35.2092 27.4059 35.1694 27.5133 35.1694 27.528C35.1694 27.5427 35.0817 27.6909 34.9745 27.8574C34.6198 28.4081 34.5784 28.4846 34.6086 28.5334C34.625 28.56 34.5734 28.6428 34.4938 28.7175C34.4142 28.7922 34.3492 28.8865 34.3492 28.9273C34.3492 28.9679 34.2713 29.0863 34.1761 29.1904C34.081 29.2945 34.0149 29.3987 34.0293 29.422C34.0437 29.4453 34.0124 29.4809 33.9596 29.5011C33.9069 29.5213 33.8809 29.5551 33.9019 29.576C33.9229 29.5971 33.8887 29.6689 33.826 29.7356C33.7632 29.8024 33.7163 29.8702 33.7217 29.8863C33.7272 29.9024 33.6531 30.0036 33.557 30.1113C33.461 30.219 33.3825 30.3375 33.3825 30.3746C33.3825 30.4118 33.3429 30.4434 33.2946 30.4449C33.2462 30.4463 33.2123 30.4764 33.2192 30.5116C33.226 30.5468 33.0481 30.7668 32.8237 31.0004C32.5993 31.2341 32.4158 31.4477 32.4158 31.4751C32.4158 31.5025 32.3855 31.5249 32.3484 31.5249C32.2722 31.5249 31.6801 32.1187 31.6976 32.1777C31.7039 32.1987 31.6637 32.2514 31.6083 32.2947C31.5161 32.3669 31.5146 32.3636 31.59 32.2564C31.6817 32.1261 31.3046 32.5157 31.0536 32.8107C30.9649 32.9148 30.8925 32.9792 30.8925 32.9538C30.8925 32.9283 30.8134 32.9832 30.7167 33.0757C30.62 33.1683 30.5409 33.2299 30.5409 33.2128C30.5409 33.1956 30.4344 33.2829 30.3041 33.4067C30.1739 33.5305 30.0289 33.6317 29.9819 33.6317C29.9349 33.6317 29.8965 33.6596 29.8965 33.6937C29.8965 33.7277 29.8701 33.7394 29.8379 33.7195C29.8057 33.6996 29.7793 33.7244 29.7793 33.7745C29.7793 33.8247 29.7344 33.8658 29.6796 33.8658C29.6247 33.8658 29.4963 33.9466 29.3943 34.0454C29.2923 34.1442 29.1659 34.2313 29.1136 34.239C29.0612 34.2466 28.9325 34.3169 28.8276 34.395C28.7227 34.4731 28.6171 34.5309 28.5929 34.5233C28.5687 34.5157 28.549 34.5341 28.549 34.5641C28.549 34.5942 28.4896 34.6371 28.4171 34.6596C28.3446 34.6821 28.2154 34.7496 28.1298 34.8098C28.0443 34.87 27.9335 34.9192 27.8837 34.9192C27.8339 34.9192 27.7721 34.9553 27.7463 34.9995C27.699 35.0806 27.0761 35.3874 26.9587 35.3874C26.9237 35.3874 26.7993 35.4372 26.6821 35.498C26.3431 35.6741 25.7589 35.9141 25.6692 35.9141C25.624 35.9141 25.535 35.9491 25.4715 35.9918C25.4079 36.0346 25.1318 36.1291 24.8579 36.2018C24.584 36.2746 24.3028 36.3565 24.2329 36.384C24.1631 36.4114 23.939 36.452 23.7349 36.4742C23.5309 36.4964 23.3318 36.54 23.2925 36.5711C23.2533 36.6022 23.0951 36.6386 22.941 36.6521C22.787 36.6655 22.4582 36.717 22.2105 36.7666C21.8431 36.8401 21.4223 36.8518 19.9256 36.8302C18.1597 36.8048 17.5392 36.7587 17.0364 36.6154C16.9075 36.5787 16.6703 36.5408 16.5091 36.5311C16.348 36.5215 16.1377 36.4824 16.0418 36.4443C15.9459 36.4062 15.6842 36.3365 15.4603 36.2895C15.2364 36.2424 15.0249 36.1807 14.9903 36.1524C14.9556 36.124 14.8745 36.0917 14.8101 36.0806C14.7456 36.0694 14.6774 36.0394 14.6585 36.0137C14.6395 35.988 14.5604 35.9597 14.4827 35.9508C14.405 35.9419 14.2672 35.9036 14.1765 35.8658C14.0858 35.828 13.9975 35.797 13.9803 35.797C13.9377 35.797 13.5577 35.6305 13.36 35.5251C13.2715 35.4779 13.1989 35.4558 13.1989 35.476C13.1989 35.4962 13.1573 35.4712 13.1063 35.4202C13.0554 35.3694 12.9922 35.341 12.966 35.3572C12.9397 35.3734 12.9033 35.3478 12.8851 35.3002C12.8668 35.2527 12.8147 35.228 12.7693 35.2454C12.7239 35.2628 12.6438 35.2342 12.5913 35.1817C12.5388 35.1293 12.4959 35.1065 12.4959 35.131C12.4959 35.1556 12.4603 35.1271 12.4169 35.0677C12.3734 35.0084 12.3075 34.9786 12.2704 35.0015C12.2333 35.0244 12.2029 35.0152 12.2029 34.9812C12.2029 34.9471 12.1502 34.9192 12.0858 34.9192C12.0213 34.9192 11.9686 34.8928 11.9686 34.8607C11.9686 34.8285 11.9159 34.8021 11.8514 34.8021C11.787 34.8021 11.7342 34.7758 11.7342 34.7436C11.7342 34.7114 11.6947 34.6851 11.6463 34.6851C11.598 34.6851 11.5057 34.6324 11.4413 34.5681C11.3768 34.5037 11.3241 34.4691 11.3241 34.4912C11.3241 34.5133 11.2472 34.4578 11.1531 34.3678C11.0591 34.2778 10.9574 34.2194 10.9273 34.238C10.8971 34.2566 10.8113 34.2068 10.7365 34.1273C10.6618 34.0478 10.5786 33.9828 10.5516 33.9828C10.4791 33.9828 9.97595 33.6203 9.71031 33.3767C9.58288 33.2597 9.45147 33.1639 9.41831 33.1638C9.38515 33.1636 9.32 33.1108 9.27354 33.0465C9.22708 32.9821 9.16855 32.9294 9.14341 32.9294C9.11834 32.9294 9.04973 32.8833 8.99097 32.827C8.93226 32.7707 8.807 32.6576 8.71268 32.5758C8.61835 32.494 8.49385 32.3623 8.43596 32.2832C8.37808 32.2041 8.34855 32.1789 8.37035 32.2272C8.3922 32.2754 8.28299 32.1833 8.12779 32.0223C7.97253 31.8614 7.84294 31.7166 7.83972 31.7005C7.83655 31.6844 7.65692 31.4936 7.44056 31.2766C7.22419 31.0596 7.0472 30.8621 7.0472 30.8377C7.0472 30.8133 6.94818 30.6851 6.82714 30.5529C6.70616 30.4206 6.56988 30.2429 6.52436 30.1579C6.47878 30.0728 6.4196 30.0033 6.39283 30.0033C6.36606 30.0033 6.34414 29.9756 6.34414 29.9416C6.34414 29.9077 6.26564 29.796 6.16961 29.6934C6.07364 29.5908 5.96496 29.4342 5.92817 29.3455C5.89138 29.2566 5.83806 29.184 5.80976 29.184C5.78141 29.184 5.75826 29.1374 5.75826 29.0803C5.75826 29.0232 5.67677 28.8778 5.57711 28.7571C5.47751 28.6364 5.38922 28.5053 5.3809 28.4658C5.35096 28.3231 5.26408 28.1576 5.16067 28.0464C5.10267 27.984 5.05521 27.8984 5.05521 27.8562C5.05521 27.814 5.03324 27.7795 5.00646 27.7795C4.96 27.7795 4.52792 26.8436 4.52792 26.7431C4.52792 26.7167 4.47882 26.6033 4.41877 26.4911C4.29597 26.2617 4.00063 25.4101 4.00063 25.2856C4.00063 25.241 3.96987 25.2045 3.93226 25.2045C3.8947 25.2045 3.88058 25.1879 3.90091 25.1676C3.92124 25.1472 3.90829 25.0753 3.87214 25.0078C3.83594 24.9403 3.79733 24.8187 3.78625 24.7375C3.75292 24.4933 3.7354 24.4173 3.69825 24.3559C3.64476 24.2674 3.56643 23.8981 3.58284 23.8111C3.59075 23.769 3.54347 23.5794 3.47779 23.3898C3.41211 23.2001 3.35124 22.8858 3.34263 22.6913C3.33396 22.4967 3.31275 22.3374 3.29546 22.3372C3.27824 22.337 3.2599 22.2908 3.25474 22.2345C3.10312 20.5785 3.09943 18.4748 3.24707 17.9185C3.28129 17.7897 3.31656 17.5786 3.32546 17.4493C3.34438 17.1748 3.4622 16.5781 3.53907 16.3676C3.56842 16.2872 3.60252 16.1421 3.61477 16.0452C3.65871 15.6972 4.0963 14.267 4.17862 14.2023C4.19906 14.1862 4.25226 14.048 4.29679 13.8951C4.34132 13.7422 4.39832 13.6171 4.42351 13.6171C4.44871 13.6171 4.46394 13.5973 4.45732 13.5732C4.43594 13.495 4.59975 13.0655 4.71183 12.9058C4.77176 12.8204 4.82086 12.7193 4.82086 12.6812C4.82086 12.5664 5.82435 10.7923 5.97381 10.6429C6.0164 10.6004 6.0512 10.5461 6.0512 10.5223C6.0512 10.4986 6.13692 10.3904 6.24161 10.2818C6.34637 10.1733 6.39248 10.1067 6.34414 10.1339C6.23898 10.1928 6.47983 9.90515 6.71741 9.68797C6.81033 9.603 6.86827 9.50427 6.84618 9.46851C6.82404 9.43276 6.833 9.4035 6.8661 9.4035C6.8992 9.4035 6.96558 9.33105 7.01369 9.24256C7.06179 9.15407 7.10215 9.10538 7.10344 9.13441C7.10473 9.16344 7.21786 9.05862 7.35478 8.90149C7.49176 8.74442 7.72242 8.50301 7.86743 8.36514C8.01243 8.2272 8.15146 8.095 8.1763 8.0713C8.2012 8.04759 8.28411 7.95741 8.36056 7.87092C8.43702 7.78436 8.51553 7.72953 8.53504 7.74896C8.56878 7.78266 8.59386 7.67317 8.57599 7.57035C8.57136 7.54378 8.59234 7.5374 8.62263 7.55607C8.65286 7.57474 8.77911 7.49111 8.90314 7.3702C9.34648 6.93807 9.99581 6.42384 10.0533 6.45936C10.0855 6.4792 10.0948 6.46785 10.0738 6.43402C10.0409 6.38065 10.1844 6.27437 10.2709 6.28812C10.2878 6.29082 10.3669 6.24002 10.4467 6.17529C10.5265 6.11057 10.5522 6.07534 10.5039 6.09699C10.4555 6.11864 10.4819 6.08207 10.5625 6.01559C10.6996 5.90246 10.7405 5.88461 10.8342 5.89714C10.8548 5.89989 10.888 5.87566 10.908 5.84336C10.928 5.81099 10.9825 5.77582 11.0291 5.76517C11.0756 5.75458 11.1759 5.68611 11.252 5.61307C11.328 5.54004 11.4149 5.4955 11.4451 5.51411C11.4752 5.53272 11.4999 5.52236 11.4999 5.49105C11.4999 5.43557 12.3414 4.95335 12.4753 4.93211C12.5123 4.92625 12.5782 4.89319 12.6218 4.85866C12.7143 4.78527 13.3635 4.49892 13.4919 4.47487C13.5402 4.4658 13.5929 4.4452 13.609 4.42911C13.6792 4.35906 15.2396 3.79496 15.2724 3.82779C15.2865 3.84184 15.3465 3.82756 15.4056 3.79596C15.4648 3.76441 15.6141 3.72257 15.7375 3.70302C15.8609 3.68348 16.013 3.64011 16.0756 3.60669C16.1382 3.57322 16.2123 3.56005 16.2405 3.57743C16.2686 3.59481 16.4002 3.5707 16.533 3.52394C16.6658 3.47713 16.7877 3.43979 16.8039 3.44096C16.8201 3.44213 16.9054 3.4292 16.9935 3.41217C17.0815 3.39514 17.2836 3.36541 17.4425 3.3461C17.6013 3.32684 17.7541 3.297 17.782 3.27979C17.8098 3.26258 18.0031 3.24983 18.2116 3.25141C18.42 3.25304 18.6495 3.22928 18.7216 3.19868C18.8424 3.14735 20.6084 3.16362 21.6875 3.22601ZM6.28556 11.9717C6.20213 11.9947 6.09046 12.1018 6.02613 12.2206C5.89928 12.4549 5.88798 12.4181 6.33248 13.2221C6.43478 13.4071 6.50579 13.5586 6.49026 13.5586C6.47479 13.5586 6.55436 13.6793 6.66714 13.8269C6.77992 13.9745 6.85726 14.1193 6.83904 14.1488C6.82081 14.1782 6.83417 14.2023 6.86874 14.2023C6.90331 14.2023 6.99054 14.3268 7.06261 14.4789C7.19068 14.7491 7.23673 14.8184 7.49616 15.1319L7.62294 15.285L16.3429 15.3004C22.3577 15.311 25.1094 15.2967 25.2128 15.2541C25.3205 15.2097 25.565 14.8544 26.0833 13.9892C26.4797 13.3275 26.8279 12.6995 26.8572 12.5935C26.9386 12.2991 26.827 12.0716 26.557 11.9818C26.4199 11.9362 6.4503 11.9262 6.28556 11.9717ZM30.7899 11.9803C30.7175 12.0094 30.6581 12.019 30.6581 12.0016C30.6581 11.9311 30.4938 12.1424 30.3349 12.4174C30.2418 12.5783 30.1486 12.7232 30.1278 12.7393C30.1069 12.7554 30.0028 12.9265 29.8965 13.1197C29.7901 13.3128 29.6874 13.484 29.668 13.5001C29.6486 13.5161 29.628 13.557 29.622 13.5908C29.6161 13.6246 29.5173 13.7919 29.4023 13.9624C29.2875 14.133 29.1934 14.3095 29.1934 14.3545C29.1934 14.3995 29.1737 14.4368 29.1495 14.4373C29.1253 14.4378 29.041 14.5695 28.9622 14.73C28.8833 14.8904 28.7977 15.0216 28.7718 15.0216C28.7459 15.0216 28.7247 15.0593 28.7247 15.1053C28.7247 15.1512 28.6918 15.2239 28.6515 15.2667C28.6112 15.3095 28.4992 15.4969 28.4025 15.6833C28.3058 15.8696 28.174 16.0794 28.1095 16.1496C28.0451 16.2197 27.9977 16.2909 28.0041 16.3078C28.0106 16.3246 27.9602 16.4306 27.892 16.5432C27.8239 16.6559 27.7104 16.8534 27.6401 16.9821C27.5697 17.1109 27.4488 17.312 27.3714 17.429C27.1787 17.7205 27.0049 18.0261 27.0002 18.0815C26.9981 18.1069 26.9612 18.1493 26.9182 18.1759C26.8751 18.2024 26.8427 18.2413 26.8461 18.2621C26.8537 18.3086 26.6722 18.6679 26.6207 18.7085C26.5509 18.7635 26.3784 19.0597 26.4161 19.0597C26.4368 19.0597 26.3847 19.1501 26.3003 19.2606C26.2159 19.3711 26.1469 19.4896 26.1469 19.5239C26.1469 19.5583 26.1189 19.5864 26.0848 19.5864C26.0507 19.5864 26.0378 19.6106 26.056 19.6401C26.0744 19.6698 26.0558 19.729 26.0149 19.7718C25.974 19.8147 25.9083 19.9222 25.8691 20.0106C25.8299 20.0991 25.7694 20.1716 25.7345 20.1716C25.6997 20.1716 25.6857 20.1949 25.7033 20.2235C25.721 20.252 25.6962 20.3079 25.6482 20.3477C25.6002 20.3875 25.561 20.448 25.561 20.4822C25.561 20.5165 25.5017 20.6096 25.4291 20.6893C25.3566 20.769 25.3369 20.8125 25.3852 20.7861C25.4335 20.7596 25.4072 20.8101 25.3266 20.8984C25.2461 20.9866 25.1873 21.0702 25.196 21.084C25.2167 21.1169 25.0303 21.4797 24.9733 21.5176C24.9491 21.5337 24.868 21.6654 24.7931 21.8102C24.7181 21.955 24.6107 22.1236 24.5543 22.1848C24.498 22.246 24.4657 22.3185 24.4826 22.3457C24.4995 22.3731 24.4854 22.3954 24.4513 22.3954C24.4172 22.3954 24.3938 22.4152 24.3995 22.4393C24.4207 22.5306 24.2524 22.7998 24.1958 22.7649C24.1634 22.7449 24.1543 22.7567 24.1757 22.7913C24.197 22.8259 24.1728 22.8958 24.1219 22.9466C24.071 22.9976 24.0452 23.0392 24.0646 23.0392C24.084 23.0392 24.0118 23.1775 23.9041 23.3464C23.7964 23.5154 23.6191 23.8166 23.51 24.0158C23.4009 24.2149 23.2904 24.3648 23.2645 24.3488C23.2387 24.3328 23.2175 24.37 23.2175 24.4313C23.2175 24.4926 23.1647 24.6036 23.1003 24.6778C23.0358 24.752 22.9831 24.8482 22.9831 24.8916C22.9831 24.9349 22.9552 24.9704 22.9211 24.9704C22.887 24.9704 22.874 24.9946 22.8923 25.0242C22.9106 25.0538 22.8858 25.1178 22.8372 25.1663C22.7885 25.2149 22.7488 25.2692 22.7488 25.287C22.7488 25.3047 22.6602 25.458 22.5518 25.6277C22.4436 25.7973 22.3363 25.9952 22.3136 26.0677C22.2908 26.1401 22.2476 26.1994 22.2175 26.1994C22.1875 26.1994 22.1629 26.2224 22.1629 26.2505C22.1629 26.2996 22.0277 26.5439 21.7216 27.0479C21.6434 27.1767 21.5215 27.3939 21.4507 27.5308C21.3798 27.6675 21.3002 27.7795 21.2737 27.7795C21.2471 27.7795 21.2255 27.8171 21.2255 27.8631C21.2255 27.909 21.1924 27.9815 21.1521 28.024C21.1117 28.0665 21.026 28.2063 20.9617 28.3346C20.8973 28.4628 20.8136 28.601 20.7757 28.6417C20.7378 28.6824 20.6602 28.821 20.6033 28.9498C20.5464 29.0786 20.4786 29.184 20.4526 29.184C20.4265 29.184 20.4052 29.2203 20.4052 29.2646C20.4052 29.309 20.366 29.3778 20.318 29.4176C20.27 29.4574 20.2478 29.5173 20.2685 29.5508C20.2895 29.5848 20.278 29.5944 20.2426 29.5725C20.2076 29.5509 20.1634 29.5583 20.1445 29.589C20.0781 29.6963 19.8713 29.6253 19.7375 29.4493C19.6633 29.3517 19.5384 29.151 19.4599 29.0033C19.1846 28.485 18.8527 28.0195 18.7361 27.9883C18.6713 27.9708 17.9404 27.9563 17.112 27.9559C15.6373 27.955 15.6031 27.9577 15.4861 28.0831C15.2742 28.3104 15.3274 28.5681 15.7182 29.2084C15.9115 29.5252 16.0703 29.8007 16.071 29.8207C16.0717 29.8407 16.1239 29.9228 16.1869 30.0033C16.2499 30.0838 16.3021 30.1823 16.3028 30.2223C16.3035 30.2623 16.3634 30.3632 16.4359 30.4465C16.5084 30.5298 16.5684 30.6156 16.5693 30.6371C16.5701 30.6587 16.6124 30.7422 16.6634 30.8226C16.7144 30.9031 16.8606 31.1533 16.9882 31.3786C17.3486 32.0145 17.383 32.0709 17.4617 32.1565C17.5023 32.2005 17.5205 32.2608 17.5022 32.2904C17.4839 32.32 17.4967 32.3442 17.5307 32.3442C17.5647 32.3442 17.6504 32.4693 17.7213 32.6222C17.7922 32.775 17.8662 32.9133 17.8857 32.9294C17.9496 32.982 18.7556 34.3609 18.7751 34.451C18.7855 34.4993 18.8402 34.5732 18.8966 34.6153C18.953 34.6573 18.9991 34.7346 18.9991 34.787C18.9991 34.8395 19.0584 34.9476 19.1309 35.0273C19.2035 35.1069 19.2232 35.1528 19.1749 35.1291C19.122 35.1032 19.1278 35.1195 19.1895 35.17C19.2459 35.2162 19.2921 35.28 19.2921 35.3117C19.2921 35.3435 19.3443 35.4296 19.408 35.503C19.4718 35.5764 19.5098 35.6595 19.4924 35.6875C19.4751 35.7156 19.4889 35.7385 19.523 35.7385C19.5571 35.7385 19.585 35.7685 19.585 35.8052C19.585 35.9227 19.7835 36.0273 20.0098 36.0292C20.2574 36.0313 20.3922 35.925 20.5792 35.58C20.6453 35.4579 20.8073 35.1869 20.939 34.9777C21.0708 34.7685 21.2592 34.4525 21.3576 34.2754C21.4561 34.0984 21.633 33.7956 21.7508 33.6024C21.8685 33.4093 21.9949 33.1986 22.0315 33.1343C22.5075 32.2981 22.8905 31.6674 22.9318 31.6517C22.96 31.6409 22.9831 31.5985 22.9831 31.5572C22.9831 31.5159 23.0424 31.4069 23.1149 31.3147C23.1875 31.2227 23.2339 31.1467 23.2182 31.1459C23.2025 31.1451 23.3606 30.8588 23.5697 30.5096C23.7787 30.1604 24.0027 29.7786 24.0673 29.661C24.3877 29.0781 24.5956 28.7275 24.7232 28.5549C24.8006 28.4503 24.8475 28.3647 24.8276 28.3647C24.8076 28.3647 24.8525 28.2792 24.9272 28.1747C25.0019 28.0703 25.1122 27.8925 25.1723 27.7797C25.2938 27.5518 25.8875 26.5399 26.5287 25.4678C26.7597 25.0816 27.0471 24.5944 27.1671 24.3852C27.2872 24.176 27.5315 23.7546 27.7101 23.4488C27.8887 23.143 28.0876 22.8007 28.1523 22.688C28.217 22.5754 28.537 22.039 28.8635 21.4961C29.19 20.9531 29.4929 20.4396 29.5367 20.3549C29.6235 20.187 29.9982 19.5367 30.2494 19.1182C30.3362 18.9733 30.561 18.5915 30.7488 18.2696C30.9366 17.9477 31.3322 17.2762 31.6279 16.7773C31.9236 16.2784 32.2889 15.6595 32.4395 15.402C32.5901 15.1445 32.7368 14.8943 32.7654 14.8461C34.0545 12.6724 34.0875 12.6065 34.0213 12.3391C33.9278 11.962 33.77 11.9255 32.24 11.9264C31.515 11.927 30.8624 11.9512 30.7899 11.9803ZM9.33494 17.3595C9.28813 17.3891 9.22473 17.3978 9.19403 17.3789C9.16333 17.3599 9.15595 17.373 9.17757 17.4079C9.19919 17.4429 9.19005 17.488 9.1573 17.5082C9.03403 17.5844 9.09572 17.9732 9.27354 18.2404C9.36992 18.3852 9.44889 18.5366 9.44907 18.5769C9.44918 18.6171 9.47725 18.65 9.51135 18.65C9.54544 18.65 9.5571 18.6763 9.53718 18.7085C9.51726 18.7407 9.52588 18.7671 9.55634 18.7671C9.58681 18.7671 9.65571 18.8526 9.70949 18.9572C9.86264 19.2551 10.1716 19.7832 10.2817 19.9353C10.3368 20.0114 10.3682 20.0957 10.3515 20.1226C10.3349 20.1495 10.3507 20.1716 10.3867 20.1716C10.4227 20.1716 10.4381 20.1943 10.421 20.2221C10.4038 20.2498 10.4879 20.3618 10.6078 20.4708L10.8259 20.669H16.3976C20.8262 20.669 21.9982 20.6536 22.1101 20.5938C22.2628 20.5121 22.2873 20.4755 22.9927 19.2778C23.5427 18.3439 23.7447 17.9455 23.7447 17.7952C23.7447 17.587 23.6262 17.3759 23.4886 17.339C23.2739 17.2815 9.42669 17.3015 9.33494 17.3595ZM12.5397 22.6225C12.2751 22.7031 12.167 23.1315 12.3356 23.4312C12.3754 23.5018 12.4832 23.6975 12.5751 23.8659C12.8418 24.3542 12.8711 24.4022 12.9772 24.5228C13.0325 24.5856 13.0639 24.6594 13.047 24.6866C13.0301 24.714 13.0442 24.7363 13.0783 24.7363C13.1124 24.7363 13.1403 24.7621 13.1403 24.7937C13.1403 24.8253 13.2334 24.9964 13.3472 25.1741C13.461 25.3517 13.5381 25.4971 13.5188 25.4971C13.4994 25.4971 13.5251 25.5387 13.5761 25.5896C13.627 25.6405 13.6534 25.7068 13.6346 25.7372C13.616 25.7674 13.6939 25.8311 13.808 25.8787C13.9804 25.9507 14.4188 25.9643 16.4047 25.9594C17.7189 25.9562 18.86 25.9355 18.9405 25.9134C19.0523 25.8827 19.2282 25.6378 19.6824 24.8805C20.0099 24.3344 20.3076 23.8549 20.3439 23.8146C20.3802 23.7744 20.3947 23.7414 20.3761 23.7414C20.3576 23.7414 20.4093 23.6432 20.491 23.523C20.6839 23.2394 20.6892 22.9305 20.5039 22.7567L20.3682 22.6293L16.4905 22.6148C14.3578 22.6068 12.5799 22.6103 12.5397 22.6225Z" fill="black"/>
</svg>
