<svg width="24" height="25" viewBox="0 0 24 25" fill="none" xmlns="http://www.w3.org/2000/svg">
<path d="M24 14.8199C24 17.5399 23.2 19.9665 21.6 22.0999C21.44 22.3132 21.2267 22.4332 20.96 22.4599C20.6933 22.4865 20.4533 22.4199 20.24 22.2599C20.0267 22.0999 19.9067 21.8999 19.88 21.6599C19.8533 21.4199 19.92 21.1932 20.08 20.9799C21.4667 19.1665 22.16 17.1132 22.16 14.8199C22.16 13.0065 21.7067 11.3265 20.8 9.77986C19.8933 8.2332 18.6533 7.00653 17.08 6.09986C15.5067 5.1932 13.8133 4.73986 12 4.73986C10.1867 4.73986 8.49333 5.1932 6.92 6.09986C5.34667 7.00653 4.10667 8.2332 3.2 9.77986C2.29333 11.3265 1.84 13.0065 1.84 14.8199C1.84 17.1132 2.53333 19.1665 3.92 20.9799C4.08 21.1932 4.14667 21.4199 4.12 21.6599C4.09333 21.8999 3.97333 22.0999 3.76 22.2599C3.54667 22.4199 3.30667 22.4865 3.04 22.4599C2.77333 22.4332 2.56 22.3132 2.4 22.0999C0.8 19.9665 0 17.5399 0 14.8199C0 12.6865 0.533333 10.6999 1.6 8.85986C2.66667 7.01986 4.12 5.56653 5.96 4.49986C7.8 3.4332 9.81333 2.89986 12 2.89986C14.1867 2.89986 16.2 3.4332 18.04 4.49986C19.88 5.56653 21.3333 7.01986 22.4 8.85986C23.4667 10.6999 24 12.6865 24 14.8199ZM17.92 9.21986C18.1333 9.37986 18.24 9.5932 18.24 9.85986C18.24 10.1265 18.1333 10.3399 17.92 10.4999L14.88 13.6199C15.1467 14.0999 15.28 14.6065 15.28 15.1399C15.28 16.0465 14.96 16.8199 14.32 17.4599C13.68 18.0999 12.9067 18.4199 12 18.4199C11.0933 18.4199 10.32 18.0999 9.68 17.4599C9.04 16.8199 8.72 16.0465 8.72 15.1399C8.72 14.2332 9.04 13.4599 9.68 12.8199C10.32 12.1799 11.0933 11.8599 12 11.8599C12.5333 11.8599 13.04 11.9932 13.52 12.2599L16.64 9.21986C16.8 9.00653 17.0133 8.89986 17.28 8.89986C17.5467 8.89986 17.76 9.00653 17.92 9.21986ZM13.44 15.1399C13.44 14.7665 13.2933 14.4465 13 14.1799C12.7067 13.9132 12.3733 13.7799 12 13.7799C11.6267 13.7799 11.2933 13.9132 11 14.1799C10.7067 14.4465 10.56 14.7665 10.56 15.1399C10.56 15.5132 10.7067 15.8465 11 16.1399C11.2933 16.4332 11.6267 16.5799 12 16.5799C12.3733 16.5799 12.7067 16.4332 13 16.1399C13.2933 15.8465 13.44 15.5132 13.44 15.1399Z" fill="#405FF2"/>
</svg>
